<svg width="98" height="28" viewBox="0 0 98 28" fill="none" xmlns="http://www.w3.org/2000/svg">
<path d="M8.61303 14.3425H17.2203V28H8.61303V14.354H0V6.26764H8.61303V14.3425Z" fill="url(#paint0_linear_359_1329)"/>
<path d="M68.1576 6.83741C68.1576 3.07914 65.0629 0 61.2857 0H38.628H29.1936H28.5631L23.762 6.26763L17.2256 14.3424L20.1814 17.9799L29.0605 28H39.7444L26.9839 14.3424L33.3873 6.45755H61.2857V10.7511H40.2072V28H61.2857C65.0629 28 68.1576 24.9209 68.1576 21.1626V18.7683C68.1576 16.9439 67.4345 15.2345 66.2892 13.905C67.4345 12.6906 68.1576 11.0561 68.1576 9.23165V6.83741ZM61.2857 21.5424H47.0791V17.2489H61.2799V21.5424H61.2857Z" fill="url(#paint1_linear_359_1329)"/>
<path d="M83.7995 11.8906H98.0003V21.1223C98.0003 24.8806 94.9056 27.9597 91.1284 27.9597H76.9276C73.1503 27.9597 70.0557 24.8806 70.0557 21.1223V6.83741C70.0557 3.07914 73.1503 0 76.9276 0H97.2425V6.45755H76.9276V21.5022H91.1284V18.3482H83.7995V11.8906Z" fill="url(#paint2_linear_359_1329)"/>
<defs>
<linearGradient id="paint0_linear_359_1329" x1="-21.7122" y1="5.09095" x2="79.5434" y2="45.7103" gradientUnits="userSpaceOnUse">
<stop stop-color="#FE37A1"/>
<stop offset="0.25" stop-color="#C531D8"/>
<stop offset="0.5037" stop-color="#8C41FE"/>
<stop offset="0.75" stop-color="#669CFE"/>
<stop offset="1" stop-color="#0BFFEC"/>
</linearGradient>
<linearGradient id="paint1_linear_359_1329" x1="-15.5134" y1="-10.3627" x2="85.7423" y2="30.2566" gradientUnits="userSpaceOnUse">
<stop stop-color="#FE37A1"/>
<stop offset="0.25" stop-color="#C531D8"/>
<stop offset="0.5037" stop-color="#8C41FE"/>
<stop offset="0.75" stop-color="#669CFE"/>
<stop offset="1" stop-color="#0BFFEC"/>
</linearGradient>
<linearGradient id="paint2_linear_359_1329" x1="-9.92736" y1="-24.2856" x2="91.3283" y2="16.3337" gradientUnits="userSpaceOnUse">
<stop stop-color="#FE37A1"/>
<stop offset="0.25" stop-color="#C531D8"/>
<stop offset="0.5037" stop-color="#8C41FE"/>
<stop offset="0.75" stop-color="#669CFE"/>
<stop offset="1" stop-color="#0BFFEC"/>
</linearGradient>
</defs>
</svg>
